# xmcd
# Copyright (C) 1995-1998 Ti Kan
#
# Track frame offsets:
#       150
#       17740
#       35922
#       52865
#       68230
#       84167
#       100609
#       113949
#       132360
#       151684
#       166679
#       185019
#       200979
#
# Disc length: 2860 seconds
#
# Revision: 0
# Processed by: cddbd v1.5.2PL0 Copyright (c) Steve Scherf et al.
# Submitted via: CD-Transfer v1.0
#
DISCID=a60b2a0d
DTITLE=Various Nov06 - Only For Radio 11
DYEAR=06
DGENRE=
TTITLE0=Aerosmith Devil´s Got A New Disguise
TTITLE1=Christina Aguilera Hurt
TTITLE2=Jamiroquai Runaway
TTITLE3=Outkast Iflewind Blue
TTITLE4=Pink U and Ur Hand
TTITLE5=Eamonn (How Could You) Bring Him Home
TTITLE6=Fatboy Slim Champion Sound
TTITLE7=Nick Lachey What´s Left Of Me
TTITLE8=X-Press 2 Feat. Rob Harvey - Kill 100
TTITLE9=Re-Touch Feat. Taylor G. Your Love
TTITLE10=Gigi D`alessio Primo Appuntamento
TTITLE11=Fcs Geloso Di Te
TTITLE12=Miotti Fai Che Ci Credi
EXTD=
EXTT0=
EXTT1=
EXTT2=
EXTT3=
EXTT4=
EXTT5=
EXTT6=
EXTT7=
EXTT8=
EXTT9=
EXTT10=
EXTT11=
EXTT12=
PLAYORDER=
